<svg xmlns="http://www.w3.org/2000/svg" fill="none" viewBox="0 0 336 201">
  <path d="M0 0h336v201H0z" fill="#f4d04e"/>
  <path fill="#111" d="M234.864 209.036 451.4-7.5l67.175 67.175-216.536 216.536Z"/>
  <rect width="139" height="95" x="7.2598677" y="117.18526" fill="#fff" rx="47.5" transform="rotate(-45)"/>
  <rect width="139" height="95" x="-16.740046" y="93.185356" fill="#111" rx="47.5" transform="rotate(-45)"/>
  <rect width="139" height="95" x="-40.739956" y="69.185448" fill="#fff" rx="47.5" transform="rotate(-45)"/>
    <rect width="204" height="270" x="40" y="70" fill="#111" rx="102" transform="scale(-1 1) rotate(45)"/>
    <path stroke="#111" stroke-width="3" d="M69.965 71.719v23.334h23.334m42.78-42.78V28.94h-23.334m-9.9 9.898v46.67M210.364-37.5l60.873 60.873c12.497 12.496 12.497 32.758 0 45.254l-77.745 77.746c-12.497 12.496-12.497 32.758 0 45.254l69.872 69.873"/>
    <path stroke="#111" stroke-width="3" d="m253.339 149.574-12.144 12.145 14.256 14.257v12.672h12.673l13.729 13.729 12.145-12.145m-15.313-66.004-12.145 12.145 14.257 14.257v12.673h12.673l13.729 13.729 12.145-12.145m-15.313-66.004-12.145 12.144 14.257 14.257v12.673h12.673l13.729 13.729 12.144-12.145m-15.313-66.004-12.145 12.145 14.257 14.257v12.672h12.673l13.729 13.729 12.145-12.144"/>
  <path stroke-width="3" d="m253.339 149.574-12.144 12.145 14.256 14.257v12.672h12.673l13.729 13.729 12.145-12.145m-15.313-66.004-12.145 12.145 14.257 14.257v12.673h12.673l13.729 13.729 12.145-12.145m-15.313-66.004-12.145 12.144 14.257 14.257v12.673h12.673l13.729 13.729 12.144-12.145m-15.313-66.004-12.145 12.145 14.257 14.257v12.672h12.673l13.729 13.729 12.145-12.145" mask="url(#a)" style="stroke:#fff"/>
  <defs>
    <mask id="a" maskUnits="userSpaceOnUse">
      <path fill="#111" d="M234.864 209.036 451.4-7.5l67.175 67.175-216.536 216.536Z"/>
    </mask>
  </defs>
</svg>
